<svg width="56" height="30" viewBox="0 0 651 332" fill="none" xmlns="http://www.w3.org/2000/svg">
<path d="M32.4253 169.196C32.0772 170.969 32.0772 172.389 32.0772 174.162C32.0772 214.245 56.5703 238.009 88.0591 238.009C92.9577 238.009 96.8037 237.303 99.9534 235.883C111.151 227.723 121.645 220.631 129.345 216.732L131.094 222.404C128.997 230.211 115.702 244.748 111.151 247.941C104.504 251.135 86.6583 256.454 74.4159 256.454C31.0328 256.454 0.240234 225.95 0.240234 177.002C0.240234 126.281 36.2795 91.5171 76.1648 91.5171C108.002 91.5171 135.296 113.155 135.296 152.885C135.296 157.146 134.244 162.465 131.799 164.238C128.301 165.658 115.006 169.204 98.909 169.204H32.4253V169.196ZM102.407 155.717C103.46 153.238 104.156 148.978 104.156 145.079C104.156 123.794 93.6623 103.929 73.3632 103.929C44.3196 103.929 32.7734 140.465 32.7734 155.717H102.407Z" fill="white"/>
<path d="M207.365 113.863L208.061 114.216C230.101 98.6117 245.145 91.511 255.647 91.511C284.691 91.511 323.175 116.342 323.175 167.064C323.175 229.843 271.039 256.448 238.506 256.448C231.858 256.448 217.51 250.776 209.462 245.448L208.766 245.801C208.766 271.691 209.462 295.463 210.167 312.841L242.708 323.841L239.558 332C223.81 332 209.819 331.647 193.722 331.647C181.828 331.647 169.229 332 156.986 332L160.136 323.135L177.982 313.908C178.33 301.85 179.382 268.153 179.382 216.365V118.115L159.78 107.477L162.929 100.385C168.524 97.5445 196.515 91.1665 208.766 90.8052L207.365 113.863ZM208.758 231.978C215.057 235.877 224.854 239.423 235 239.423C264.391 239.423 291.33 213.886 291.33 172.736C291.33 140.459 272.083 112.435 241.299 112.435C232.555 112.435 221.356 116.334 208.758 125.561V231.978Z" fill="white"/>
<path d="M352.56 101.803C358.155 100.03 379.15 93.6439 399.092 91.5179V163.171C399.092 202.902 399.441 223.472 399.789 233.405L424.63 244.043L422.185 252.203C409.942 252.203 396.647 251.85 382.996 251.85C371.798 251.85 360.252 252.203 346.608 252.203L349.054 244.043L368.996 233.405C369.344 221.346 369.692 190.843 369.692 162.466V117.769L350.802 108.543L352.56 101.803ZM385.449 18.0913C390.348 19.8644 399.797 30.5028 402.947 37.9563L402.25 40.7966C399.101 47.5359 388.607 58.1743 383.709 61.0146L380.907 61.7204C374.956 58.1743 366.916 48.2418 363.766 41.5025L364.462 38.6622C369.361 30.5028 377.409 21.9904 383.352 18.4443L385.449 18.0913Z" fill="white"/>
<path d="M517.003 244.044L514.906 252.203C501.959 252.203 488.664 251.85 475.021 251.85C462.778 251.85 450.528 252.203 438.285 252.203L440.382 244.397L460.325 233.758C461.021 226.666 461.377 204.675 461.377 152.534C461.377 107.837 461.378 65.2755 460.325 27.3186L440.73 18.0919L443.88 10.9997C452.973 8.15945 478.867 1.78146 491.466 0C490.769 37.5956 490.413 80.1659 490.413 122.728C490.413 157.492 490.761 225.59 491.466 233.397L517.003 244.044ZM602.377 257.522C583.487 256.455 567.39 252.203 554.791 240.145C538.695 224.893 514.201 194.39 497.06 170.264L496.712 168.491C511.756 151.466 532.047 127.341 544.994 109.963L551.642 91.5185C567.034 91.5185 590.831 93.9974 598.879 96.1318L593.98 104.291C588.734 107.132 566.694 114.577 557.593 118.123C545.699 129.828 540.452 135.501 524.007 154.307V155.374C544.298 183.398 586.985 234.473 604.482 255.758L602.377 257.522Z" fill="white"/>
<circle cx="633" cy="254" r="15.6364" stroke="white" stroke-width="4"/>
<path d="M625.314 252.155V250.727H631.461V252.155H629.256V258H627.523V252.155H625.314ZM632.32 250.727H634.497L636.343 255.23H636.429L638.275 250.727H640.452V258H638.74V253.533H638.68L636.933 257.954H635.839L634.092 253.508H634.032V258H632.32V250.727Z" fill="white"/>
</svg>
